<svg width="192" height="59" viewBox="0 0 192 59" fill="none" xmlns="http://www.w3.org/2000/svg">
<path d="M18.64 50.56C17.2267 50.56 15.84 50.3867 14.48 50.04C13.1467 49.72 11.9333 49.2 10.84 48.48C10.44 48.24 10.2 47.9467 10.12 47.6C10.0667 47.28 10.12 46.96 10.28 46.64C10.44 46.3467 10.6667 46.1333 10.96 46C11.28 45.8667 11.6133 45.8933 11.96 46.08C13.1333 46.8 14.2533 47.2933 15.32 47.56C16.3867 47.8267 17.44 47.96 18.48 47.96C22.32 47.96 24.24 45.9867 24.24 42.04V38.6C23.68 39.8267 22.8 40.8 21.6 41.52C20.4267 42.2133 19.08 42.56 17.56 42.56C15.7733 42.56 14.2267 42.1467 12.92 41.32C11.6133 40.4933 10.6 39.36 9.88 37.92C9.18667 36.4533 8.84 34.76 8.84 32.84C8.84 30.92 9.18667 29.24 9.88 27.8C10.6 26.3333 11.6133 25.2 12.92 24.4C14.2267 23.6 15.7733 23.2 17.56 23.2C19.08 23.2 20.4267 23.5333 21.6 24.2C22.7733 24.8667 23.64 25.8 24.2 27V24.92C24.2 23.8267 24.7333 23.28 25.8 23.28C26.8667 23.28 27.4 23.8267 27.4 24.92V41.6C27.4 44.5867 26.6533 46.8267 25.16 48.32C23.6933 49.8133 21.52 50.56 18.64 50.56ZM18.16 39.92C20.0267 39.92 21.5067 39.28 22.6 38C23.6933 36.72 24.24 35 24.24 32.84C24.24 30.68 23.6933 28.9733 22.6 27.72C21.5067 26.44 20.0267 25.8 18.16 25.8C16.32 25.8 14.8533 26.44 13.76 27.72C12.6667 28.9733 12.12 30.68 12.12 32.84C12.12 35 12.6667 36.72 13.76 38C14.8533 39.28 16.32 39.92 18.16 39.92ZM37.9175 43.28C36.8242 43.28 36.2775 42.72 36.2775 41.6V24.92C36.2775 23.8267 36.7975 23.28 37.8375 23.28C38.9042 23.28 39.4375 23.8267 39.4375 24.92V27.04C39.9708 25.8133 40.7975 24.88 41.9175 24.24C43.0375 23.5733 44.3708 23.2133 45.9175 23.16C46.7708 23.08 47.2242 23.5067 47.2775 24.44C47.3575 25.3733 46.8775 25.8933 45.8375 26L45.1975 26.08C43.3575 26.24 41.9575 26.8267 40.9975 27.84C40.0375 28.8267 39.5575 30.1867 39.5575 31.92V41.6C39.5575 42.72 39.0108 43.28 37.9175 43.28ZM58.9444 50.48C58.331 50.48 57.9177 50.24 57.7044 49.76C57.491 49.3067 57.5044 48.7867 57.7444 48.2L60.1844 42.68L52.8244 25.56C52.5577 24.9467 52.5444 24.4133 52.7844 23.96C53.051 23.5067 53.5444 23.28 54.2644 23.28C55.011 23.28 55.5577 23.7067 55.9044 24.56L61.9444 39.32L68.0244 24.56C68.2377 24.08 68.4644 23.7467 68.7044 23.56C68.9444 23.3733 69.291 23.28 69.7444 23.28C70.3577 23.28 70.771 23.5067 70.9844 23.96C71.1977 24.4133 71.1844 24.9333 70.9444 25.52L60.7044 49.2C60.491 49.68 60.251 50.0133 59.9844 50.2C59.7444 50.3867 59.3977 50.48 58.9444 50.48ZM78.0969 43C77.4035 43 76.9769 42.7067 76.8169 42.12C76.6569 41.5333 76.8302 40.9333 77.3369 40.32L88.0169 26.08H77.9369C77.0569 26.08 76.6169 25.6533 76.6169 24.8C76.6169 23.9733 77.0569 23.56 77.9369 23.56H90.2169C91.0169 23.56 91.5102 23.8533 91.6969 24.44C91.8835 25 91.7369 25.5733 91.2569 26.16L80.4569 40.48H91.0169C91.8969 40.48 92.3369 40.8933 92.3369 41.72C92.3369 42.5733 91.8969 43 91.0169 43H78.0969ZM99.4125 43C98.7192 43 98.2925 42.7067 98.1325 42.12C97.9725 41.5333 98.1458 40.9333 98.6525 40.32L109.332 26.08H99.2525C98.3725 26.08 97.9325 25.6533 97.9325 24.8C97.9325 23.9733 98.3725 23.56 99.2525 23.56H111.532C112.332 23.56 112.826 23.8533 113.012 24.44C113.199 25 113.052 25.5733 112.572 26.16L101.772 40.48H112.332C113.212 40.48 113.652 40.8933 113.652 41.72C113.652 42.5733 113.212 43 112.332 43H99.4125ZM126.288 43.36C124.368 43.36 122.901 42.7867 121.888 41.64C120.875 40.4667 120.368 38.7733 120.368 36.56V16.16C120.368 15.0667 120.901 14.52 121.968 14.52C123.061 14.52 123.608 15.0667 123.608 16.16V36.32C123.608 39.1733 124.741 40.6 127.008 40.6C127.248 40.6 127.461 40.5867 127.648 40.56C127.835 40.5333 128.021 40.52 128.208 40.52C128.501 40.4933 128.701 40.56 128.808 40.72C128.941 40.88 129.008 41.2 129.008 41.68C129.008 42.5867 128.555 43.1067 127.648 43.24C127.435 43.2933 127.208 43.32 126.968 43.32C126.728 43.3467 126.501 43.36 126.288 43.36ZM136.604 18.88C135.191 18.88 134.484 18.2133 134.484 16.88C134.484 15.5733 135.191 14.92 136.604 14.92C138.017 14.92 138.724 15.5733 138.724 16.88C138.724 18.2133 138.017 18.88 136.604 18.88ZM136.604 43.2C135.537 43.2 135.004 42.6133 135.004 41.44V25.08C135.004 23.9333 135.537 23.36 136.604 23.36C137.697 23.36 138.244 23.9333 138.244 25.08V41.44C138.244 42.6133 137.697 43.2 136.604 43.2ZM153.661 43.36C152.461 43.36 151.248 43.2133 150.021 42.92C148.821 42.6 147.701 42.0933 146.661 41.4C146.181 41.1067 145.941 40.7333 145.941 40.28C145.968 39.8 146.154 39.4267 146.501 39.16C146.848 38.8933 147.288 38.8933 147.821 39.16C148.861 39.8 149.861 40.2533 150.821 40.52C151.808 40.76 152.781 40.88 153.741 40.88C155.261 40.88 156.408 40.6 157.181 40.04C157.954 39.48 158.341 38.72 158.341 37.76C158.341 37.0133 158.088 36.4267 157.581 36C157.074 35.5467 156.274 35.2 155.181 34.96L151.541 34.16C148.234 33.44 146.581 31.7333 146.581 29.04C146.581 27.28 147.274 25.8667 148.661 24.8C150.074 23.7333 151.914 23.2 154.181 23.2C155.328 23.2 156.434 23.36 157.501 23.68C158.568 23.9733 159.528 24.4533 160.381 25.12C160.834 25.44 161.034 25.8267 160.981 26.28C160.928 26.7333 160.714 27.0933 160.341 27.36C159.994 27.6 159.568 27.56 159.061 27.24C158.261 26.7067 157.448 26.32 156.621 26.08C155.794 25.8133 154.981 25.68 154.181 25.68C152.688 25.68 151.554 25.9733 150.781 26.56C150.008 27.1467 149.621 27.92 149.621 28.88C149.621 30.3733 150.608 31.3333 152.581 31.76L156.221 32.52C157.928 32.8933 159.221 33.4933 160.101 34.32C160.981 35.12 161.421 36.2133 161.421 37.6C161.421 39.3867 160.714 40.8 159.301 41.84C157.888 42.8533 156.008 43.36 153.661 43.36ZM176.763 43.36C174.47 43.36 172.75 42.76 171.603 41.56C170.457 40.3333 169.883 38.5733 169.883 36.28V26.08H167.203C166.27 26.08 165.803 25.6533 165.803 24.8C165.803 23.9733 166.27 23.56 167.203 23.56H169.883V18.96C169.883 17.8667 170.43 17.32 171.523 17.32C172.59 17.32 173.123 17.8667 173.123 18.96V23.56H178.163C179.097 23.56 179.563 23.9733 179.563 24.8C179.563 25.6533 179.097 26.08 178.163 26.08H173.123V35.96C173.123 37.48 173.443 38.64 174.083 39.44C174.723 40.2133 175.763 40.6 177.203 40.6C177.71 40.6 178.137 40.5467 178.483 40.44C178.83 40.3333 179.137 40.28 179.403 40.28C179.643 40.2533 179.843 40.3333 180.003 40.52C180.163 40.7067 180.243 41.0267 180.243 41.48C180.243 41.8 180.177 42.0933 180.043 42.36C179.937 42.6267 179.737 42.8133 179.443 42.92C179.123 43.0267 178.697 43.12 178.163 43.2C177.657 43.3067 177.19 43.36 176.763 43.36Z" fill="#6741D9"/>
<path d="M14.48 50.04L14.974 48.102L14.9604 48.0985L14.9467 48.0952L14.48 50.04ZM10.84 48.48L11.94 46.8097L11.905 46.7866L11.869 46.765L10.84 48.48ZM10.12 47.6L8.14721 47.9288L8.15735 47.9896L8.17122 48.0497L10.12 47.6ZM10.28 46.64L8.52421 45.6823L8.50711 45.7136L8.49115 45.7456L10.28 46.64ZM10.96 46L10.1908 44.1538L10.1614 44.1661L10.1324 44.1793L10.96 46ZM11.96 46.08L13.006 44.3754L12.9579 44.3458L12.9082 44.3191L11.96 46.08ZM15.32 47.56L14.8349 49.5003L14.8349 49.5003L15.32 47.56ZM24.24 38.6H26.24L22.4206 37.7694L24.24 38.6ZM21.6 41.52L22.6175 43.2419L22.629 43.235L21.6 41.52ZM12.92 41.32L11.8507 43.0102L11.8507 43.0102L12.92 41.32ZM9.88 37.92L8.07186 38.7748L8.08128 38.7947L8.09115 38.8144L9.88 37.92ZM9.88 27.8L8.08466 26.9187L8.0813 26.9255L8.078 26.9324L9.88 27.8ZM12.92 24.4L11.8757 22.6943L11.8757 22.6943L12.92 24.4ZM24.2 27L22.3876 27.8458L26.2 27H24.2ZM25.16 48.32L23.7458 46.9058L23.7394 46.9122L23.7331 46.9186L25.16 48.32ZM22.6 38L24.1207 39.299L24.1207 39.299L22.6 38ZM22.6 27.72L21.0793 29.019L21.086 29.0269L21.0929 29.0347L22.6 27.72ZM13.76 27.72L15.2671 29.0347L15.274 29.0269L15.2807 29.019L13.76 27.72ZM13.76 38L15.2807 36.701L15.2807 36.701L13.76 38ZM18.64 48.56C17.3921 48.56 16.1714 48.4072 14.974 48.102L13.986 51.978C15.5086 52.3661 17.0612 52.56 18.64 52.56V48.56ZM14.9467 48.0952C13.828 47.8267 12.8307 47.3962 11.94 46.8097L9.74002 50.1503C11.036 51.0038 12.4653 51.6133 14.0133 51.9848L14.9467 48.0952ZM11.869 46.765C11.8226 46.7372 11.8528 46.7462 11.9079 46.8135C11.9695 46.8888 12.0352 47.0048 12.0688 47.1503L8.17122 48.0497C8.40803 49.0759 9.09679 49.7665 9.81101 50.195L11.869 46.765ZM12.0928 47.2712C12.1024 47.3289 12.1024 47.3911 12.0928 47.4488C12.0883 47.4758 12.0824 47.4973 12.0774 47.5125C12.0724 47.5275 12.0686 47.5349 12.0689 47.5344L8.49115 45.7456C8.16254 46.4028 8.01724 47.149 8.14721 47.9288L12.0928 47.2712ZM12.0358 47.5977C12.022 47.6229 11.9922 47.668 11.9407 47.7164C11.8887 47.7654 11.8336 47.7998 11.7876 47.8207L10.1324 44.1793C9.4289 44.499 8.88362 45.0234 8.52421 45.6823L12.0358 47.5977ZM11.7292 47.8462C11.6069 47.8971 11.4525 47.9266 11.2905 47.9136C11.1364 47.9013 11.0397 47.856 11.0118 47.8409L12.9082 44.3191C12.1123 43.8905 11.1467 43.7555 10.1908 44.1538L11.7292 47.8462ZM10.914 47.7846C12.2194 48.5857 13.5278 49.1735 14.8349 49.5003L15.8051 45.6197C14.9789 45.4132 14.0473 45.0143 13.006 44.3754L10.914 47.7846ZM14.8349 49.5003C16.0512 49.8044 17.2674 49.96 18.48 49.96V45.96C17.6126 45.96 16.7221 45.849 15.8051 45.6197L14.8349 49.5003ZM18.48 49.96C20.7224 49.96 22.7683 49.3806 24.2335 47.8747C25.6887 46.379 26.24 44.3081 26.24 42.04H22.24C22.24 43.7186 21.8313 44.6076 21.3665 45.0853C20.9117 45.5528 20.0776 45.96 18.48 45.96V49.96ZM26.24 42.04V38.6H22.24V42.04H26.24ZM22.4206 37.7694C22.0352 38.6136 21.4381 39.2848 20.571 39.805L22.629 43.235C24.1619 42.3152 25.3248 41.0397 26.0594 39.4306L22.4206 37.7694ZM20.5825 39.7981C19.7519 40.289 18.7644 40.56 17.56 40.56V44.56C19.3956 44.56 21.1015 44.1377 22.6175 43.2419L20.5825 39.7981ZM17.56 40.56C16.0918 40.56 14.9288 40.2242 13.9893 39.6298L11.8507 43.0102C13.5246 44.0691 15.4549 44.56 17.56 44.56V40.56ZM13.9893 39.6298C13.0035 39.0062 12.233 38.1538 11.6689 37.0256L8.09115 38.8144C8.96703 40.5662 10.2232 41.9805 11.8507 43.0102L13.9893 39.6298ZM11.6881 37.0652C11.1422 35.9105 10.84 34.5181 10.84 32.84H6.84C6.84 35.0019 7.23109 36.9962 8.07186 38.7748L11.6881 37.0652ZM10.84 32.84C10.84 31.1607 11.1426 29.7879 11.682 28.6676L8.078 26.9324C7.23071 28.6921 6.84 30.6793 6.84 32.84H10.84ZM11.6753 28.6813C12.2398 27.5315 13.0028 26.6944 13.9643 26.1057L11.8757 22.6943C10.2239 23.7056 8.96019 25.1352 8.08466 26.9187L11.6753 28.6813ZM13.9643 26.1057C14.9075 25.5282 16.0797 25.2 17.56 25.2V21.2C15.4669 21.2 13.5458 21.6718 11.8757 22.6943L13.9643 26.1057ZM17.56 25.2C18.7782 25.2 19.7764 25.4641 20.612 25.9389L22.588 22.4611C21.077 21.6025 19.3818 21.2 17.56 21.2V25.2ZM20.612 25.9389C21.4319 26.4048 22.0067 27.0294 22.3876 27.8458L26.0124 26.1542C25.2733 24.5706 24.1148 23.3286 22.588 22.4611L20.612 25.9389ZM26.2 27V24.92H22.2V27H26.2ZM26.2 24.92C26.2 24.6694 26.2614 24.8511 26.0316 25.0866C25.9232 25.1977 25.8113 25.253 25.7466 25.2751C25.6921 25.2937 25.6984 25.28 25.8 25.28V21.28C24.9457 21.28 23.9405 21.502 23.1684 22.2934C22.4053 23.0756 22.2 24.0773 22.2 24.92H26.2ZM25.8 25.28C25.9016 25.28 25.9079 25.2937 25.8534 25.2751C25.7887 25.253 25.6768 25.1977 25.5684 25.0866C25.3386 24.8511 25.4 24.6694 25.4 24.92H29.4C29.4 24.0773 29.1947 23.0756 28.4316 22.2934C27.6595 21.502 26.6543 21.28 25.8 21.28V25.28ZM25.4 24.92V41.6H29.4V24.92H25.4ZM25.4 41.6C25.4 44.2784 24.7318 45.9198 23.7458 46.9058L26.5742 49.7342C28.5749 47.7335 29.4 44.895 29.4 41.6H25.4ZM23.7331 46.9186C22.7661 47.9032 21.19 48.56 18.64 48.56V52.56C21.85 52.56 24.6206 51.7235 26.5869 49.7214L23.7331 46.9186ZM18.16 41.92C20.54 41.92 22.6032 41.0756 24.1207 39.299L21.0793 36.701C20.4101 37.4844 19.5133 37.92 18.16 37.92V41.92ZM24.1207 39.299C25.6025 37.5642 26.24 35.3383 26.24 32.84H22.24C22.24 34.6617 21.7841 35.8758 21.0793 36.701L24.1207 39.299ZM26.24 32.84C26.24 30.3442 25.6034 28.1205 24.1071 26.4053L21.0929 29.0347C21.7832 29.8262 22.24 31.0158 22.24 32.84H26.24ZM24.1207 26.421C22.6032 24.6444 20.54 23.8 18.16 23.8V27.8C19.5133 27.8 20.4101 28.2356 21.0793 29.019L24.1207 26.421ZM18.16 23.8C15.7964 23.8 13.7508 24.6514 12.2393 26.421L15.2807 29.019C15.9559 28.2286 16.8436 27.8 18.16 27.8V23.8ZM12.2529 26.4053C10.7566 28.1205 10.12 30.3442 10.12 32.84H14.12C14.12 31.0158 14.5768 29.8262 15.2671 29.0347L12.2529 26.4053ZM10.12 32.84C10.12 35.3383 10.7575 37.5642 12.2393 39.299L15.2807 36.701C14.5759 35.8758 14.12 34.6617 14.12 32.84H10.12ZM12.2393 39.299C13.7508 41.0686 15.7964 41.92 18.16 41.92V37.92C16.8436 37.92 15.9559 37.4914 15.2807 36.701L12.2393 39.299ZM39.4375 27.04H37.4375L41.2716 27.8375L39.4375 27.04ZM41.9175 24.24L42.9098 25.9765L42.9252 25.9677L42.9405 25.9586L41.9175 24.24ZM45.9175 23.16L45.9864 25.1588L46.0454 25.1568L46.1042 25.1513L45.9175 23.16ZM47.2775 24.44L45.2808 24.5541L45.2824 24.5825L45.2848 24.6108L47.2775 24.44ZM45.8375 26L45.6334 24.0104L45.6114 24.0127L45.5894 24.0154L45.8375 26ZM45.1975 26.08L45.3708 28.0725L45.4082 28.0692L45.4456 28.0646L45.1975 26.08ZM40.9975 27.84L42.431 29.2347L42.4402 29.2252L42.4494 29.2155L40.9975 27.84ZM37.9175 41.28C37.8091 41.28 37.7969 41.2654 37.8463 41.2823C37.9059 41.3026 38.0135 41.3552 38.1186 41.4629C38.2228 41.5696 38.2675 41.6719 38.2818 41.7161C38.2933 41.7512 38.2775 41.7234 38.2775 41.6H34.2775C34.2775 42.4564 34.4863 43.4682 35.2564 44.2571C36.0351 45.0548 37.0502 45.28 37.9175 45.28V41.28ZM38.2775 41.6V24.92H34.2775V41.6H38.2775ZM38.2775 24.92C38.2775 24.6573 38.3417 24.8318 38.1166 25.0684C38.0078 25.1828 37.8915 25.2436 37.8164 25.27C37.752 25.2925 37.7471 25.28 37.8375 25.28V21.28C36.983 21.28 35.9813 21.5096 35.2184 22.3116C34.4733 23.0949 34.2775 24.0893 34.2775 24.92H38.2775ZM37.8375 25.28C37.9391 25.28 37.9454 25.2937 37.8909 25.2751C37.8262 25.253 37.7143 25.1977 37.6059 25.0866C37.3761 24.8511 37.4375 24.6694 37.4375 24.92H41.4375C41.4375 24.0773 41.2322 23.0756 40.4691 22.2934C39.697 21.502 38.6918 21.28 37.8375 21.28V25.28ZM37.4375 24.92V27.04H41.4375V24.92H37.4375ZM41.2716 27.8375C41.6398 26.9907 42.1789 26.3941 42.9098 25.9765L40.9252 22.5035C39.4161 23.3659 38.3019 24.6359 37.6034 26.2425L41.2716 27.8375ZM42.9405 25.9586C43.7214 25.4938 44.7132 25.2027 45.9864 25.1588L45.8486 21.1612C44.0284 21.224 42.3536 21.6529 40.8945 22.5214L42.9405 25.9586ZM46.1042 25.1513C46.1835 25.1438 45.8585 25.1886 45.5268 24.8764C45.2308 24.5978 45.2689 24.3473 45.2808 24.5541L49.2742 24.3259C49.2327 23.5994 49.0176 22.6688 48.2682 21.9636C47.4832 21.2247 46.5048 21.0962 45.7308 21.1687L46.1042 25.1513ZM45.2848 24.6108C45.2893 24.6634 45.2782 24.6262 45.3042 24.5318C45.3333 24.4261 45.3972 24.2933 45.5079 24.1734C45.7255 23.9377 45.8945 23.9837 45.6334 24.0104L46.0416 27.9896C46.8205 27.9097 47.7495 27.6423 48.4471 26.8866C49.1812 26.0913 49.3419 25.1053 49.2702 24.2692L45.2848 24.6108ZM45.5894 24.0154L44.9494 24.0954L45.4456 28.0646L46.0856 27.9846L45.5894 24.0154ZM45.0242 24.0875C42.8572 24.276 40.9383 24.9945 39.5456 26.4645L42.4494 29.2155C42.9767 28.6589 43.8578 28.204 45.3708 28.0725L45.0242 24.0875ZM39.564 26.4453C38.1527 27.8958 37.5575 29.8074 37.5575 31.92H41.5575C41.5575 30.566 41.9223 29.7575 42.431 29.2347L39.564 26.4453ZM37.5575 31.92V41.6H41.5575V31.92H37.5575ZM37.5575 41.6C37.5575 41.7234 37.5417 41.7512 37.5532 41.7161C37.5675 41.6719 37.6122 41.5696 37.7164 41.4629C37.8215 41.3552 37.9291 41.3026 37.9887 41.2823C38.0381 41.2654 38.0259 41.28 37.9175 41.28V45.28C38.7848 45.28 39.7999 45.0548 40.5786 44.2571C41.3487 43.4682 41.5575 42.4564 41.5575 41.6H37.5575ZM57.7044 49.76L59.532 48.9477L59.5232 48.928L59.514 48.9084L57.7044 49.76ZM57.7444 48.2L55.9151 47.3914L55.9038 47.4169L55.8933 47.4427L57.7444 48.2ZM60.1844 42.68L62.0136 43.4886L62.3661 42.6911L62.0218 41.8901L60.1844 42.68ZM52.8244 25.56L54.6618 24.7701L54.6585 24.7625L52.8244 25.56ZM52.7844 23.96L51.0605 22.946L51.0378 22.9846L51.0168 23.0242L52.7844 23.96ZM55.9044 24.56L54.0514 25.3128L54.0534 25.3175L55.9044 24.56ZM61.9444 39.32L60.0934 40.0775L61.9383 44.5859L63.7936 40.0818L61.9444 39.32ZM68.0244 24.56L66.1968 23.7477L66.1856 23.7728L66.1751 23.7982L68.0244 24.56ZM68.7044 23.56L69.9323 25.1387L69.9323 25.1387L68.7044 23.56ZM70.9844 23.96L69.1747 24.8116L69.1747 24.8116L70.9844 23.96ZM70.9444 25.52L72.7801 26.3138L72.788 26.2956L72.7955 26.2773L70.9444 25.52ZM60.7044 49.2L62.532 50.0123L62.5361 50.0031L62.5401 49.9938L60.7044 49.2ZM59.9844 50.2L58.8374 48.5615L58.7962 48.5904L58.7565 48.6213L59.9844 50.2ZM58.9444 48.48C58.8925 48.48 59.0055 48.4699 59.1786 48.5704C59.3723 48.6829 59.4854 48.8429 59.532 48.9477L55.8768 50.5723C56.1367 51.1571 56.5631 51.6771 57.1701 52.0296C57.7566 52.3701 58.3829 52.48 58.9444 52.48V48.48ZM59.514 48.9084C59.5275 48.9371 59.5388 48.9702 59.5459 49.005C59.553 49.0394 59.5541 49.0661 59.5537 49.0813C59.553 49.1102 59.5478 49.0737 59.5955 48.9573L55.8933 47.4427C55.5012 48.4012 55.3829 49.524 55.8947 50.6116L59.514 48.9084ZM59.5736 49.0086L62.0136 43.4886L58.3551 41.8714L55.9151 47.3914L59.5736 49.0086ZM62.0218 41.8901L54.6618 24.7701L50.987 26.3499L58.347 43.4699L62.0218 41.8901ZM54.6585 24.7625C54.6028 24.6343 54.6126 24.603 54.6137 24.65C54.6144 24.675 54.6122 24.7144 54.6011 24.7628C54.5899 24.8116 54.5724 24.8571 54.5519 24.8958L51.0168 23.0242C50.4103 24.1699 50.5607 25.3695 50.9902 26.3575L54.6585 24.7625ZM54.5082 24.974C54.4735 25.0331 54.4242 25.096 54.3605 25.153C54.2972 25.2096 54.2359 25.246 54.1894 25.2674C54.1034 25.3069 54.1031 25.28 54.2644 25.28V21.28C53.1294 21.28 51.814 21.6651 51.0605 22.946L54.5082 24.974ZM54.2644 25.28C54.2586 25.28 54.2193 25.2788 54.1603 25.2593C54.0995 25.2393 54.045 25.2088 54.0038 25.1766C53.925 25.1151 53.968 25.1074 54.0514 25.3128L57.7573 23.8072C57.4941 23.1592 57.0904 22.5115 56.4649 22.0234C55.8123 21.514 55.0471 21.28 54.2644 21.28V25.28ZM54.0534 25.3175L60.0934 40.0775L63.7954 38.5625L57.7554 23.8025L54.0534 25.3175ZM63.7936 40.0818L69.8736 25.3218L66.1751 23.7982L60.0951 38.5582L63.7936 40.0818ZM69.852 25.3723C69.9239 25.2106 69.9786 25.1181 70.0082 25.0746C70.04 25.0279 70.0208 25.0698 69.9323 25.1387L67.4765 21.9813C66.8509 22.4678 66.4594 23.1568 66.1968 23.7477L69.852 25.3723ZM69.9323 25.1387C69.8077 25.2356 69.7023 25.271 69.6643 25.2812C69.6305 25.2903 69.6496 25.28 69.7444 25.28V21.28C69.0552 21.28 68.2029 21.4163 67.4765 21.9813L69.9323 25.1387ZM69.7444 25.28C69.8131 25.28 69.7164 25.2934 69.5527 25.2036C69.4697 25.1581 69.3877 25.0955 69.3162 25.0179C69.2455 24.9412 69.2009 24.8671 69.1747 24.8116L72.794 23.1084C72.5192 22.5245 72.0777 22.0263 71.476 21.6964C70.899 21.38 70.289 21.28 69.7444 21.28V25.28ZM69.1747 24.8116C69.1612 24.7829 69.1499 24.7498 69.1428 24.715C69.1357 24.6806 69.1346 24.6539 69.135 24.6387C69.1358 24.6098 69.1409 24.6463 69.0933 24.7627L72.7955 26.2773C73.1876 25.3188 73.3058 24.196 72.794 23.1084L69.1747 24.8116ZM69.1087 24.7262L58.8687 48.4062L62.5401 49.9938L72.7801 26.3138L69.1087 24.7262ZM58.8768 48.3877C58.8113 48.5351 58.7625 48.612 58.7413 48.6414C58.7197 48.6714 58.7458 48.6257 58.8374 48.5615L61.1313 51.8385C61.826 51.3522 62.2528 50.6405 62.532 50.0123L58.8768 48.3877ZM58.7565 48.6213C58.8811 48.5244 58.9864 48.489 59.0244 48.4788C59.0582 48.4697 59.0392 48.48 58.9444 48.48V52.48C59.6335 52.48 60.4858 52.3437 61.2123 51.7787L58.7565 48.6213ZM77.3369 40.32L78.8788 41.5938L78.9087 41.5576L78.9369 41.52L77.3369 40.32ZM88.0169 26.08L89.6169 27.28L92.0169 24.08H88.0169V26.08ZM91.6969 24.44L89.791 25.0464L89.7952 25.0595L89.7995 25.0725L91.6969 24.44ZM91.2569 26.16L89.709 24.8935L89.6839 24.9241L89.6601 24.9557L91.2569 26.16ZM80.4569 40.48L78.8601 39.2757L76.4435 42.48H80.4569V40.48ZM78.0969 41C78.0201 41 78.1739 40.9834 78.3899 41.1319C78.4975 41.2058 78.5862 41.2985 78.651 41.3956C78.7132 41.489 78.7382 41.5636 78.7464 41.5938L74.8873 42.6462C75.069 43.3122 75.4547 43.9681 76.1238 44.4281C76.7665 44.87 77.4803 45 78.0969 45V41ZM78.7464 41.5938C78.7539 41.6214 78.7597 41.6584 78.7593 41.7C78.7588 41.7411 78.7524 41.771 78.7483 41.7851C78.7412 41.8095 78.7539 41.745 78.8788 41.5938L75.795 39.0462C75.0151 39.9902 74.5053 41.2454 74.8873 42.6462L78.7464 41.5938ZM78.9369 41.52L89.6169 27.28L86.4169 24.88L75.7369 39.12L78.9369 41.52ZM88.0169 24.08H77.9369V28.08H88.0169V24.08ZM77.9369 24.08C77.79 24.08 78.05 24.0438 78.3392 24.3242C78.6398 24.6157 78.6169 24.9025 78.6169 24.8H74.6169C74.6169 25.5509 74.814 26.4776 75.5546 27.1958C76.2838 27.9029 77.2037 28.08 77.9369 28.08V24.08ZM78.6169 24.8C78.6169 24.7281 78.63 25.0329 78.3162 25.3277C78.0259 25.6004 77.7751 25.56 77.9369 25.56V21.56C77.2186 21.56 76.3078 21.7263 75.5775 22.4123C74.8237 23.1204 74.6169 24.0453 74.6169 24.8H78.6169ZM77.9369 25.56H90.2169V21.56H77.9369V25.56ZM90.2169 25.56C90.3923 25.56 90.3259 25.5949 90.1647 25.4991C90.0788 25.448 89.9907 25.3735 89.9168 25.2779C89.8443 25.1841 89.8077 25.0988 89.791 25.0464L93.6027 23.8336C93.3727 23.1105 92.9086 22.4769 92.209 22.0609C91.5546 21.6718 90.8415 21.56 90.2169 21.56V25.56ZM89.7995 25.0725C89.7882 25.0385 89.7776 24.9903 89.7756 24.933C89.7736 24.8758 89.7807 24.8277 89.7893 24.7943C89.8054 24.7312 89.8144 24.7646 89.709 24.8935L92.8048 27.4265C93.5793 26.4799 94.0597 25.2039 93.5942 23.8075L89.7995 25.0725ZM89.6601 24.9557L78.8601 39.2757L82.0537 41.6843L92.8537 27.3643L89.6601 24.9557ZM80.4569 42.48H91.0169V38.48H80.4569V42.48ZM91.0169 42.48C91.1786 42.48 90.9278 42.5204 90.6375 42.2477C90.3237 41.9529 90.3369 41.6481 90.3369 41.72H94.3369C94.3369 40.9653 94.13 40.0404 93.3762 39.3323C92.6459 38.6463 91.7351 38.48 91.0169 38.48V42.48ZM90.3369 41.72C90.3369 41.8225 90.314 41.5357 90.6146 41.2442C90.9038 40.9638 91.1637 41 91.0169 41V45C91.75 45 92.67 44.8229 93.3992 44.1158C94.1398 43.3976 94.3369 42.4709 94.3369 41.72H90.3369ZM91.0169 41H78.0969V45H91.0169V41ZM98.6525 40.32L100.194 41.5938L100.224 41.5576L100.252 41.52L98.6525 40.32ZM109.332 26.08L110.932 27.28L113.332 24.08H109.332V26.08ZM113.012 24.44L111.107 25.0464L111.111 25.0595L111.115 25.0725L113.012 24.44ZM112.572 26.16L111.025 24.8935L111 24.9241L110.976 24.9557L112.572 26.16ZM101.772 40.48L100.176 39.2757L97.7591 42.48H101.772V40.48ZM99.4125 41C99.3357 41 99.4895 40.9834 99.7056 41.1319C99.8131 41.2058 99.9019 41.2985 99.9666 41.3956C100.029 41.489 100.054 41.5636 100.062 41.5938L96.203 42.6462C96.3846 43.3122 96.7703 43.9681 97.4394 44.4281C98.0822 44.87 98.7959 45 99.4125 45V41ZM100.062 41.5938C100.07 41.6214 100.075 41.6584 100.075 41.7C100.074 41.7411 100.068 41.771 100.064 41.7851C100.057 41.8095 100.07 41.745 100.194 41.5938L97.1106 39.0462C96.3307 39.9902 95.8209 41.2454 96.203 42.6462L100.062 41.5938ZM100.252 41.52L110.932 27.28L107.732 24.88L97.0525 39.12L100.252 41.52ZM109.332 24.08H99.2525V28.08H109.332V24.08ZM99.2525 24.08C99.1056 24.08 99.3656 24.0438 99.6548 24.3242C99.9554 24.6157 99.9325 24.9025 99.9325 24.8H95.9325C95.9325 25.5509 96.1296 26.4776 96.8702 27.1958C97.5994 27.9029 98.5194 28.08 99.2525 28.08V24.08ZM99.9325 24.8C99.9325 24.7281 99.9457 25.0329 99.6318 25.3277C99.3415 25.6004 99.0907 25.56 99.2525 25.56V21.56C98.5343 21.56 97.6235 21.7263 96.8931 22.4123C96.1393 23.1204 95.9325 24.0453 95.9325 24.8H99.9325ZM99.2525 25.56H111.532V21.56H99.2525V25.56ZM111.532 25.56C111.708 25.56 111.641 25.5949 111.48 25.4991C111.394 25.448 111.306 25.3735 111.232 25.2779C111.16 25.1841 111.123 25.0988 111.107 25.0464L114.918 23.8336C114.688 23.1105 114.224 22.4769 113.525 22.0609C112.87 21.6718 112.157 21.56 111.532 21.56V25.56ZM111.115 25.0725C111.104 25.0385 111.093 24.9903 111.091 24.933C111.089 24.8758 111.096 24.8277 111.105 24.7943C111.121 24.7312 111.13 24.7646 111.025 24.8935L114.12 27.4265C114.895 26.4799 115.375 25.2039 114.91 23.8075L111.115 25.0725ZM110.976 24.9557L100.176 39.2757L103.369 41.6843L114.169 27.3643L110.976 24.9557ZM101.772 42.48H112.332V38.48H101.772V42.48ZM112.332 42.48C112.494 42.48 112.243 42.5204 111.953 42.2477C111.639 41.9529 111.652 41.6481 111.652 41.72H115.652C115.652 40.9653 115.446 40.0404 114.692 39.3323C113.962 38.6463 113.051 38.48 112.332 38.48V42.48ZM111.652 41.72C111.652 41.8225 111.63 41.5357 111.93 41.2442C112.219 40.9638 112.479 41 112.332 41V45C113.066 45 113.986 44.8229 114.715 44.1158C115.455 43.3976 115.652 42.4709 115.652 41.72H111.652ZM112.332 41H99.4125V45H112.332V41ZM121.888 41.64L120.374 42.9472L120.382 42.9559L120.389 42.9644L121.888 41.64ZM127.648 40.56L127.365 38.5801L127.365 38.5801L127.648 40.56ZM128.208 40.52V42.52H128.299L128.389 42.5118L128.208 40.52ZM128.808 40.72L127.144 41.8294L127.203 41.9183L127.272 42.0004L128.808 40.72ZM127.648 43.24L127.357 41.2613L127.259 41.2757L127.163 41.2997L127.648 43.24ZM126.968 43.32V41.32H126.857L126.747 41.3322L126.968 43.32ZM126.288 41.36C124.784 41.36 123.928 40.9275 123.387 40.3156L120.389 42.9644C121.875 44.6458 123.952 45.36 126.288 45.36V41.36ZM123.402 40.3328C122.813 39.6511 122.368 38.4958 122.368 36.56H118.368C118.368 39.0509 118.936 41.2822 120.374 42.9472L123.402 40.3328ZM122.368 36.56V16.16H118.368V36.56H122.368ZM122.368 16.16C122.368 15.9094 122.429 16.0911 122.2 16.3266C122.091 16.4377 121.979 16.493 121.915 16.5151C121.86 16.5337 121.866 16.52 121.968 16.52V12.52C121.114 12.52 120.109 12.742 119.337 13.5334C118.573 14.3156 118.368 15.3173 118.368 16.16H122.368ZM121.968 16.52C122.081 16.52 122.098 16.5348 122.053 16.5199C121.999 16.5017 121.892 16.4519 121.784 16.3442C121.676 16.2366 121.626 16.1294 121.608 16.075C121.593 16.0302 121.608 16.0474 121.608 16.16H125.608C125.608 15.305 125.393 14.2965 124.612 13.5158C123.832 12.7351 122.823 12.52 121.968 12.52V16.52ZM121.608 16.16V36.32H125.608V16.16H121.608ZM121.608 36.32C121.608 37.9579 121.924 39.556 122.892 40.774C123.93 42.0799 125.428 42.6 127.008 42.6V38.6C126.321 38.6 126.12 38.4067 126.024 38.286C125.858 38.0774 125.608 37.5354 125.608 36.32H121.608ZM127.008 42.6C127.319 42.6 127.629 42.583 127.931 42.5399L127.365 38.5801C127.294 38.5904 127.178 38.6 127.008 38.6V42.6ZM127.931 42.5399C128.025 42.5265 128.117 42.52 128.208 42.52V38.52C127.926 38.52 127.645 38.5402 127.365 38.5801L127.931 42.5399ZM128.389 42.5118C128.363 42.5142 128.19 42.5287 127.946 42.4474C127.667 42.3544 127.361 42.1556 127.144 41.8294L130.472 39.6106C129.768 38.5538 128.627 38.4736 128.027 38.5282L128.389 42.5118ZM127.272 42.0004C127.15 41.8538 127.083 41.7203 127.049 41.6392C127.015 41.5574 127.003 41.5016 127 41.4879C126.996 41.4673 127.008 41.5197 127.008 41.68H131.008C131.008 41.3603 130.987 41.0127 130.916 40.6721C130.85 40.3562 130.708 39.8752 130.345 39.4396L127.272 42.0004ZM127.008 41.68C127.008 41.8047 126.981 41.6416 127.161 41.4357C127.338 41.2327 127.495 41.241 127.357 41.2613L127.939 45.2187C128.708 45.1057 129.545 44.7873 130.176 44.0643C130.809 43.3384 131.008 42.462 131.008 41.68H127.008ZM127.163 41.2997C127.122 41.31 127.059 41.32 126.968 41.32V45.32C127.357 45.32 127.748 45.2767 128.133 45.1803L127.163 41.2997ZM126.747 41.3322C126.571 41.3518 126.419 41.36 126.288 41.36V45.36C126.584 45.36 126.885 45.3415 127.189 45.3078L126.747 41.3322ZM136.604 16.88C136.505 16.88 136.43 16.8741 136.374 16.8667C136.319 16.8592 136.288 16.8507 136.277 16.8471C136.265 16.8436 136.275 16.8454 136.297 16.8582C136.321 16.8715 136.353 16.8932 136.387 16.9252C136.421 16.9574 136.449 16.9922 136.47 17.0254C136.491 17.058 136.5 17.0814 136.502 17.0887C136.506 17.0997 136.484 17.0422 136.484 16.88H132.484C132.484 17.8857 132.756 18.9995 133.642 19.8348C134.505 20.6494 135.617 20.88 136.604 20.88V16.88ZM136.484 16.88C136.484 16.7282 136.505 16.6809 136.498 16.7008C136.494 16.7125 136.483 16.7393 136.46 16.7744C136.437 16.8101 136.407 16.8461 136.372 16.8785C136.337 16.9108 136.305 16.932 136.282 16.9446C136.261 16.9567 136.253 16.9578 136.266 16.9538C136.279 16.9497 136.312 16.941 136.369 16.9334C136.426 16.9258 136.504 16.92 136.604 16.92V12.92C135.626 12.92 134.52 13.1427 133.656 13.9415C132.763 14.7676 132.484 15.8763 132.484 16.88H136.484ZM136.604 16.92C136.704 16.92 136.782 16.9258 136.839 16.9334C136.896 16.941 136.929 16.9497 136.943 16.9538C136.955 16.9578 136.948 16.9567 136.926 16.9446C136.903 16.932 136.871 16.9108 136.836 16.8785C136.801 16.8461 136.771 16.8101 136.748 16.7744C136.725 16.7393 136.714 16.7125 136.71 16.7008C136.703 16.6809 136.724 16.7282 136.724 16.88H140.724C140.724 15.8763 140.445 14.7676 139.552 13.9415C138.688 13.1427 137.582 12.92 136.604 12.92V16.92ZM136.724 16.88C136.724 17.0422 136.702 17.0997 136.706 17.0887C136.708 17.0814 136.718 17.058 136.738 17.0254C136.759 16.9922 136.788 16.9574 136.822 16.9252C136.856 16.8932 136.887 16.8715 136.911 16.8582C136.933 16.8454 136.943 16.8436 136.932 16.8471C136.92 16.8507 136.889 16.8592 136.834 16.8667C136.778 16.8741 136.703 16.88 136.604 16.88V20.88C137.591 20.88 138.703 20.6494 139.567 19.8348C140.452 18.9995 140.724 17.8857 140.724 16.88H136.724ZM136.604 41.2C136.516 41.2 136.524 41.1872 136.593 41.2122C136.672 41.2415 136.784 41.305 136.884 41.4147C136.98 41.5202 137.012 41.6111 137.018 41.63C137.022 41.6416 137.004 41.5882 137.004 41.44H133.004C133.004 42.2903 133.193 43.3013 133.924 44.1053C134.688 44.9456 135.711 45.2 136.604 45.2V41.2ZM137.004 41.44V25.08H133.004V41.44H137.004ZM137.004 25.08C137.004 24.7805 137.077 24.9284 136.868 25.1522C136.766 25.2626 136.654 25.3235 136.579 25.3503C136.515 25.3731 136.511 25.36 136.604 25.36V21.36C135.724 21.36 134.707 21.6033 133.94 22.4278C133.198 23.225 133.004 24.2329 133.004 25.08H137.004ZM136.604 25.36C136.708 25.36 136.715 25.3743 136.662 25.3555C136.597 25.3329 136.489 25.2776 136.387 25.1701C136.286 25.0648 136.246 24.9675 136.236 24.9333C136.227 24.9077 136.244 24.946 136.244 25.08H140.244C140.244 24.2215 140.041 23.2064 139.282 22.4098C138.505 21.5955 137.484 21.36 136.604 21.36V25.36ZM136.244 25.08V41.44H140.244V25.08H136.244ZM136.244 41.44C136.244 41.5843 136.227 41.633 136.232 41.6167C136.239 41.5925 136.274 41.5004 136.371 41.3965C136.47 41.2897 136.578 41.2317 136.648 41.2069C136.706 41.186 136.704 41.2 136.604 41.2V45.2C137.497 45.2 138.523 44.9539 139.297 44.1235C140.046 43.3196 140.244 42.3012 140.244 41.44H136.244ZM150.021 42.92L149.506 44.8525L149.531 44.8591L149.556 44.8652L150.021 42.92ZM146.661 41.4L147.77 39.7359L147.738 39.714L147.704 39.6934L146.661 41.4ZM145.941 40.28L143.944 40.1691L143.941 40.2245V40.28H145.941ZM146.501 39.16L147.72 40.7452L147.72 40.7452L146.501 39.16ZM147.821 39.16L148.869 37.4567L148.794 37.4105L148.715 37.3711L147.821 39.16ZM150.821 40.52L150.286 42.447L150.317 42.4557L150.348 42.4633L150.821 40.52ZM157.181 40.04L156.008 38.4201L156.008 38.4201L157.181 40.04ZM157.581 36L156.247 37.4905L156.27 37.5105L156.293 37.5298L157.581 36ZM155.181 34.96L154.752 36.9134L154.752 36.9135L155.181 34.96ZM151.541 34.16L151.97 32.2066L151.966 32.2058L151.541 34.16ZM148.661 24.8L147.456 23.2036L147.449 23.2092L147.442 23.2148L148.661 24.8ZM157.501 23.68L156.926 25.5957L156.948 25.6023L156.971 25.6084L157.501 23.68ZM160.381 25.12L159.15 26.696L159.188 26.7259L159.228 26.7539L160.381 25.12ZM160.981 26.28L158.995 26.0463L158.995 26.0463L160.981 26.28ZM160.341 27.36L161.479 29.0044L161.491 28.996L161.503 28.9875L160.341 27.36ZM159.061 27.24L157.952 28.9041L157.972 28.9178L157.993 28.931L159.061 27.24ZM156.621 26.08L156.007 27.9834L156.035 27.9925L156.063 28.0007L156.621 26.08ZM150.781 26.56L151.99 28.1534L151.99 28.1534L150.781 26.56ZM152.581 31.76L152.158 33.7148L152.165 33.7163L152.172 33.7178L152.581 31.76ZM156.221 32.52L156.648 30.5662L156.639 30.5642L156.63 30.5622L156.221 32.52ZM160.101 34.32L158.732 35.7777L158.744 35.7889L158.756 35.7999L160.101 34.32ZM159.301 41.84L160.466 43.4654L160.476 43.4582L160.486 43.4509L159.301 41.84ZM153.661 41.36C152.625 41.36 151.568 41.2336 150.486 40.9748L149.556 44.8652C150.927 45.1931 152.297 45.36 153.661 45.36V41.36ZM150.536 40.9875C149.549 40.7243 148.63 40.3087 147.77 39.7359L145.552 43.0641C146.772 43.878 148.093 44.4757 149.506 44.8525L150.536 40.9875ZM147.704 39.6934C147.655 39.6633 147.722 39.6926 147.803 39.8185C147.895 39.9617 147.941 40.1319 147.941 40.28H143.941C143.941 41.6042 144.709 42.551 145.618 43.1066L147.704 39.6934ZM147.938 40.3909C147.938 40.3825 147.936 40.4426 147.89 40.5344C147.841 40.6311 147.775 40.7033 147.72 40.7452L145.282 37.5748C144.424 38.2341 143.999 39.1728 143.944 40.1691L147.938 40.3909ZM147.72 40.7452C147.642 40.8054 147.541 40.8632 147.421 40.9041C147.3 40.945 147.186 40.96 147.091 40.96C146.91 40.96 146.844 40.9075 146.927 40.9489L148.715 37.3711C147.787 36.907 146.456 36.671 145.282 37.5748L147.72 40.7452ZM146.773 40.8633C147.938 41.5803 149.11 42.1204 150.286 42.447L151.356 38.593C150.612 38.3863 149.784 38.0197 148.869 37.4567L146.773 40.8633ZM150.348 42.4633C151.481 42.7388 152.613 42.88 153.741 42.88V38.88C152.949 38.88 152.134 38.7812 151.294 38.5767L150.348 42.4633ZM153.741 42.88C155.452 42.88 157.091 42.5745 158.354 41.6599L156.008 38.4201C155.724 38.6255 155.07 38.88 153.741 38.88V42.88ZM158.354 41.6599C159.65 40.7213 160.341 39.3572 160.341 37.76H156.341C156.341 38.0828 156.258 38.2387 156.008 38.4201L158.354 41.6599ZM160.341 37.76C160.341 36.5076 159.888 35.328 158.869 34.4702L156.293 37.5298C156.301 37.5368 156.306 37.5419 156.309 37.545C156.312 37.548 156.313 37.5497 156.313 37.55C156.314 37.5503 156.314 37.5502 156.313 37.55C156.313 37.5498 156.314 37.5506 156.315 37.5529C156.317 37.5573 156.341 37.614 156.341 37.76H160.341ZM158.915 34.5095C158.036 33.7231 156.846 33.2779 155.61 33.0065L154.752 36.9135C155.703 37.1221 156.113 37.3702 156.247 37.4905L158.915 34.5095ZM155.61 33.0066L151.97 32.2066L151.112 36.1134L154.752 36.9134L155.61 33.0066ZM151.966 32.2058C150.542 31.8956 149.716 31.4223 149.257 30.9484C148.841 30.5189 148.581 29.9424 148.581 29.04H144.581C144.581 30.831 145.147 32.4545 146.384 33.7316C147.579 34.9644 149.233 35.7044 151.115 36.1142L151.966 32.2058ZM148.581 29.04C148.581 27.8965 148.989 27.0706 149.88 26.3852L147.442 23.2148C145.559 24.6627 144.581 26.6635 144.581 29.04H148.581ZM149.866 26.3964C150.845 25.657 152.226 25.2 154.181 25.2V21.2C151.602 21.2 149.303 21.8096 147.456 23.2036L149.866 26.3964ZM154.181 25.2C155.139 25.2 156.052 25.3332 156.926 25.5957L158.076 21.7643C156.817 21.3868 155.516 21.2 154.181 21.2V25.2ZM156.971 25.6084C157.788 25.8333 158.509 26.1955 159.15 26.696L161.612 23.544C160.546 22.7111 159.347 22.1134 158.031 21.7516L156.971 25.6084ZM159.228 26.7539C159.262 26.7784 159.177 26.7279 159.095 26.5688C159.002 26.3898 158.977 26.1958 158.995 26.0463L162.967 26.5137C163.126 25.1627 162.433 24.1204 161.534 23.4861L159.228 26.7539ZM158.995 26.0463C158.998 26.0208 159.012 25.952 159.06 25.8704C159.109 25.789 159.161 25.7451 159.178 25.7325L161.503 28.9875C162.333 28.395 162.848 27.5302 162.967 26.5137L158.995 26.0463ZM159.203 25.7156C159.299 25.6491 159.421 25.5884 159.565 25.5512C159.709 25.5141 159.841 25.5087 159.948 25.5187C160.147 25.5374 160.216 25.604 160.129 25.549L157.993 28.931C158.842 29.4672 160.199 29.8911 161.479 29.0044L159.203 25.7156ZM160.17 25.5759C159.22 24.9425 158.223 24.4624 157.179 24.1593L156.063 28.0007C156.673 28.1776 157.302 28.4709 157.952 28.9041L160.17 25.5759ZM157.235 24.1766C156.227 23.8514 155.206 23.68 154.181 23.68V27.68C154.755 27.68 155.362 27.7753 156.007 27.9834L157.235 24.1766ZM154.181 23.68C152.473 23.68 150.836 24.0079 149.572 24.9666L151.99 28.1534C152.273 27.9387 152.903 27.68 154.181 27.68V23.68ZM149.572 24.9666C148.307 25.9265 147.621 27.2862 147.621 28.88H151.621C151.621 28.5538 151.708 28.3669 151.99 28.1534L149.572 24.9666ZM147.621 28.88C147.621 30.1159 148.051 31.263 148.966 32.1535C149.826 32.9898 150.966 33.457 152.158 33.7148L153.004 29.8052C152.223 29.6363 151.883 29.4101 151.756 29.2865C151.684 29.217 151.621 29.1374 151.621 28.88H147.621ZM152.172 33.7178L155.812 34.4778L156.63 30.5622L152.99 29.8022L152.172 33.7178ZM155.794 34.4738C157.296 34.8024 158.207 35.2852 158.732 35.7777L161.47 32.8623C160.235 31.7015 158.559 30.9843 156.648 30.5662L155.794 34.4738ZM158.756 35.7999C159.148 36.1569 159.421 36.6743 159.421 37.6H163.421C163.421 35.7524 162.814 34.0831 161.446 32.8401L158.756 35.7999ZM159.421 37.6C159.421 38.7644 159.006 39.5741 158.116 40.2291L160.486 43.4509C162.423 42.0259 163.421 40.0089 163.421 37.6H159.421ZM158.136 40.2146C157.163 40.9122 155.733 41.36 153.661 41.36V45.36C156.282 45.36 158.613 44.7945 160.466 43.4654L158.136 40.2146ZM171.603 41.56L170.142 42.9258L170.15 42.9338L170.157 42.9417L171.603 41.56ZM169.883 26.08H171.883V24.08H169.883V26.08ZM169.883 23.56V25.56H171.883V23.56H169.883ZM173.123 23.56H171.123V25.56H173.123V23.56ZM173.123 26.08V24.08H171.123V26.08H173.123ZM174.083 39.44L172.522 40.6894L172.532 40.7023L172.543 40.7151L174.083 39.44ZM178.483 40.44L177.895 38.5284L177.895 38.5284L178.483 40.44ZM179.403 40.28V42.28H179.514L179.624 42.2678L179.403 40.28ZM180.003 40.52L181.522 39.2184L181.522 39.2184L180.003 40.52ZM180.043 42.36L178.255 41.4656L178.217 41.54L178.186 41.6172L180.043 42.36ZM179.443 42.92L180.076 44.8174L180.102 44.8088L180.127 44.7996L179.443 42.92ZM178.163 43.2L177.867 41.2221L177.809 41.2308L177.751 41.2429L178.163 43.2ZM176.763 41.36C174.802 41.36 173.693 40.8515 173.049 40.1783L170.157 42.9417C171.807 44.6685 174.138 45.36 176.763 45.36V41.36ZM173.064 40.1942C172.374 39.4557 171.883 38.2543 171.883 36.28H167.883C167.883 38.8924 168.539 41.211 170.142 42.9258L173.064 40.1942ZM171.883 36.28V26.08H167.883V36.28H171.883ZM169.883 24.08H167.203V28.08H169.883V24.08ZM167.203 24.08C167.003 24.08 167.226 24.0303 167.503 24.2839C167.642 24.4111 167.727 24.5565 167.77 24.6749C167.809 24.782 167.803 24.8363 167.803 24.8H163.803C163.803 25.5834 164.026 26.5248 164.804 27.2361C165.548 27.9163 166.471 28.08 167.203 28.08V24.08ZM167.803 24.8C167.803 24.7766 167.807 24.8437 167.763 24.962C167.714 25.092 167.622 25.2411 167.48 25.3672C167.202 25.6127 166.989 25.56 167.203 25.56V21.56C166.484 21.56 165.571 21.714 164.827 22.3728C164.037 23.0726 163.803 24.0112 163.803 24.8H167.803ZM167.203 25.56H169.883V21.56H167.203V25.56ZM171.883 23.56V18.96H167.883V23.56H171.883ZM171.883 18.96C171.883 18.8474 171.898 18.8302 171.883 18.875C171.865 18.9294 171.815 19.0366 171.708 19.1442C171.6 19.2519 171.493 19.3017 171.438 19.3199C171.394 19.3348 171.411 19.32 171.523 19.32V15.32C170.668 15.32 169.66 15.5351 168.879 16.3158C168.099 17.0965 167.883 18.105 167.883 18.96H171.883ZM171.523 19.32C171.625 19.32 171.631 19.3337 171.577 19.3151C171.512 19.293 171.4 19.2377 171.292 19.1266C171.062 18.8911 171.123 18.7094 171.123 18.96H175.123C175.123 18.1173 174.918 17.1156 174.155 16.3334C173.383 15.542 172.378 15.32 171.523 15.32V19.32ZM171.123 18.96V23.56H175.123V18.96H171.123ZM173.123 25.56H178.163V21.56H173.123V25.56ZM178.163 25.56C178.378 25.56 178.165 25.6127 177.887 25.3672C177.745 25.2411 177.653 25.092 177.604 24.962C177.56 24.8437 177.563 24.7766 177.563 24.8H181.563C181.563 24.0112 181.33 23.0726 180.54 22.3728C179.796 21.714 178.883 21.56 178.163 21.56V25.56ZM177.563 24.8C177.563 24.8363 177.558 24.782 177.597 24.6749C177.64 24.5565 177.725 24.4111 177.864 24.2839C178.141 24.0303 178.364 24.08 178.163 24.08V28.08C178.896 28.08 179.819 27.9163 180.563 27.2361C181.341 26.5248 181.563 25.5834 181.563 24.8H177.563ZM178.163 24.08H173.123V28.08H178.163V24.08ZM171.123 26.08V35.96H175.123V26.08H171.123ZM171.123 35.96C171.123 37.7228 171.489 39.399 172.522 40.6894L175.645 38.1906C175.397 37.881 175.123 37.2372 175.123 35.96H171.123ZM172.543 40.7151C173.706 42.1206 175.436 42.6 177.203 42.6V38.6C176.091 38.6 175.741 38.306 175.624 38.1649L172.543 40.7151ZM177.203 42.6C177.837 42.6 178.476 42.535 179.072 42.3516L177.895 38.5284C177.798 38.5584 177.583 38.6 177.203 38.6V42.6ZM179.072 42.3516C179.177 42.3191 179.258 42.3005 179.316 42.2904C179.345 42.2854 179.366 42.2828 179.381 42.2814C179.389 42.2807 179.394 42.2804 179.398 42.2802C179.4 42.2801 179.401 42.28 179.402 42.28C179.402 42.28 179.403 42.28 179.403 42.28C179.403 42.28 179.403 42.28 179.403 42.28C179.403 42.28 179.403 42.28 179.403 42.28C179.403 42.28 179.403 42.28 179.403 42.28C179.403 42.28 179.403 42.28 179.403 42.28V38.28C178.88 38.28 178.369 38.3827 177.895 38.5284L179.072 42.3516ZM179.624 42.2678C179.457 42.2863 179.232 42.2734 178.991 42.177C178.751 42.0811 178.585 41.9383 178.485 41.8216L181.522 39.2184C180.941 38.5403 180.094 38.1909 179.183 38.2922L179.624 42.2678ZM178.485 41.8216C178.306 41.6128 178.254 41.4281 178.243 41.3851C178.232 41.3398 178.243 41.3606 178.243 41.48H182.243C182.243 40.9054 182.165 39.9683 181.522 39.2184L178.485 41.8216ZM178.243 41.48C178.243 41.4905 178.243 41.4966 178.243 41.4989C178.242 41.5011 178.242 41.5002 178.243 41.4968C178.244 41.4933 178.245 41.4883 178.247 41.4823C178.25 41.4764 178.252 41.4707 178.255 41.4656L181.832 43.2544C182.115 42.69 182.243 42.0872 182.243 41.48H178.243ZM178.186 41.6172C178.237 41.4914 178.323 41.3552 178.449 41.2379C178.571 41.1236 178.689 41.0661 178.76 41.0404L180.127 44.7996C180.903 44.5173 181.562 43.9476 181.9 43.1028L178.186 41.6172ZM178.811 41.0226C178.645 41.0779 178.345 41.1504 177.867 41.2221L178.46 45.1779C179.049 45.0896 179.602 44.9754 180.076 44.8174L178.811 41.0226ZM177.751 41.2429C177.353 41.3269 177.026 41.36 176.763 41.36V45.36C177.354 45.36 177.961 45.2865 178.575 45.1571L177.751 41.2429Z" fill="#6741D9"/>
</svg>
